
[img]http://img828.imageshack.us/img828/8527/hostel.jpg[/img]
[code]
Hostel Part III 2011 DVDRiP XviD AC3-26K

Imdb: 
http://www.imdb.com/title/tt1255916/

Plot:
While attending a bachelor party in Las Vegas, four friends are enticed by two sexy escorts to join 

them at a private party way off the Strip

Sources:
DVDR DVD9 DIC

Notes:
Encoded the video added a few filters to make it look nice :)
Thnxs SIC for the dvdr :P eng subs included!!

Greetz:
Xtreme Encode|FYA|ILLUMANTI|CM8|RX|VISION|HDSCENE|
To all the people who have helped me :P you know who you are

Anything to offer email us @: 26k@hushmail.me

Video
ID                                       : 0
Format                                   : MPEG-4 Visual
Format profile                           : Advanced Simple@L5
Format settings, BVOP                    : 2
Format settings, QPel                    : No
Format settings, GMC                     : No warppoints
Format settings, Matrix                  : Default (H.263)
Muxing mode                              : Packed bitstream
Codec ID                                 : XVID
Codec ID/Hint                            : XviD
Duration                                 : 1h 27mn
Bit rate                                 : 1 604 Kbps
Width                                    : 720 pixels
Height                                   : 404 pixels
Display aspect ratio                     : 16:9
Frame rate                               : 23.976 fps
Color space                              : YUV
Chroma subsampling                       : 4:2:0
Bit depth                                : 8 bits
Scan type                                : Progressive
Compression mode                         : Lossy
Bits/(Pixel*Frame)                       : 0.230
Stream size                              : 1 006 MiB (78%)
Writing library                          : XviD 1.2.1 (UTC 2008-12-04)

Audio
ID                                       : 1
Format                                   : AC-3
Format/Info                              : Audio Coding 3
Mode extension                           : CM (complete main)
Codec ID                                 : 2000
Duration                                 : 1h 27mn
Bit rate mode                            : Constant
Bit rate                                 : 448 Kbps
Channel(s)                               : 6 channels
Channel positions                        : Front: L C R, Side: L R, LFE
Sampling rate                            : 48.0 KHz
Bit depth                                : 16 bits
Compression mode                         : Lossy
Stream size                              : 281 MiB (22%)
Alignment                                : Aligned on interleaves
Interleave, duration                     : 32 ms (0.77 video frame)
Interleave, preload duration             : 32 ms

[/code]
Screens:
[img]http://img594.imageshack.us/img594/2525/vlcsnap2011121519h27m07.png[/img]
[img]http://img850.imageshack.us/img850/8089/vlcsnap2011121519h27m16.png[/img]
[img]http://img856.imageshack.us/img856/5945/vlcsnap2011121519h27m22.png[/img]
[img]http://img15.imageshack.us/img15/6458/vlcsnap2011121519h27m29.png[/img]
[img]http://img97.imageshack.us/img97/3889/vlcsnap2011121519h27m36.png[/img]


[img]http://img851.imageshack.us/img851/5503/26ks.jpg[/img]#
Thank you smallz for banner!